<svg width="150" height="28" viewBox="0 0 150 28" fill="none" xmlns="http://www.w3.org/2000/svg">
<path d="M27.125 11.025H17.1062L14 1.3125L10.8937 11.025H0.875L8.96875 17.0188L5.90625 26.6875L14 20.6937L22.0938 26.6875L18.9875 16.975L27.125 11.025Z" fill="#FFCE31"/>
<rect width="28" height="28" stroke="white"/>
<path d="M57.125 11.025H47.1062L44 1.3125L40.8937 11.025H30.875L38.9688 17.0188L35.9062 26.6875L44 20.6937L52.0938 26.6875L48.9875 16.975L57.125 11.025Z" fill="#FFCE31"/>
<rect x="30" width="28" height="28" stroke="white"/>
<path d="M87.125 11.025H77.1062L74 1.3125L70.8937 11.025H60.875L68.9688 17.0188L65.9062 26.6875L74 20.6937L82.0938 26.6875L78.9875 16.975L87.125 11.025Z" fill="#FFCE31"/>
<rect x="60" width="28" height="28" stroke="white"/>
<path d="M117.125 11.025H107.106L104 1.3125L100.894 11.025H90.875L98.9688 17.0188L95.9062 26.6875L104 20.6937L112.094 26.6875L108.988 16.975L117.125 11.025Z" fill="#FFCE31"/>
<rect x="90" width="28" height="28" stroke="white"/>
<path d="M149.125 11.025H139.106L136 1.3125L132.894 11.025H122.875L130.969 17.0188L127.906 26.6875L136 20.6937L144.094 26.6875L140.988 16.975L149.125 11.025Z" fill="#FFCE31"/>
<rect x="122" width="28" height="28" stroke="white"/>
</svg>
